<svg xmlns="http://www.w3.org/2000/svg" width="1000" height="100" viewBox="0 0 1000 100" role="img" aria-labelledby="title desc">
<title id="title">Camera Station — Alexander Cherezau</title>
<desc id="desc">A lavender station nameplate with a decorative moving mint signal. Camera, station online.</desc>
<style>@keyframes travel{to{transform:translateX(112px)}}.packet{animation:travel 3s linear infinite}@media(prefers-reduced-motion:reduce){.packet{animation:none}}</style>
<path fill="#10121e" d="M12 0h976v12h12v76h-12v12H12V88H0V12h12z"/>
<path fill="none" stroke="#39364c" d="M20 8h960v12h12v60h-12v12H20V80H8V20h12z"/>
<path fill="#b7a5e5" d="M28 31h8v-8h24v8h8v32h-8v8H36v-8h-8z"/>
<path fill="#10121e" d="M40 35h16v8h8v12h-8v8H40v-8h-8V43h8z"/>
<path fill="#9ce6c0" d="M43 42h10v14H43z"/>
<g font-family="monospace"><text x="90" y="32" fill="#b6b0c8" font-size="12" letter-spacing="3">ALEXANDER CHEREZAU</text><text x="88" y="68" fill="#f3ecdc" font-size="30" font-weight="bold" letter-spacing="2">CAMERA <tspan fill="#655d7e">//</tspan> <tspan fill="#9ce6c0">STATION ONLINE</tspan></text></g>
<path stroke="#39364c" stroke-width="2" d="M774 52h190"/>
<g fill="#9ce6c0"><path d="M772 47h10v10h-10zM956 47h10v10h-10z"/><g class="packet"><path d="M792 49h6v6h-6z"/><path opacity=".45" d="M808 49h6v6h-6z"/><path opacity=".2" d="M824 49h6v6h-6z"/></g></g>
<path fill="#efb77c" d="M944 24h4v4h-4zM960 72h4v4h-4z"/>
</svg>
